# xmcd
#
# Track frame offsets:
#	150
#	19592
#	31507
#	40955
#	56360
#	79300
#	93937
#	105112
#	116190
#	132395
#	147277
#	163987
#	179097
#	197932
#	212890
#	233772
#	249302
#
# Disc length: 3599 seconds
#
# Revision: 0
# Processed by: cddbd v1.5.2PL0 Copyright (c) Steve Scherf et al.
# Submitted via: audiograbber 1.82.02
#
DISCID=e80e0d11
DTITLE=Slim Dusty - Heart Of Australian CD 2
DYEAR=1978
DGENRE=Country
TTITLE0=I Am Australian
TTITLE1=Home Among The Gum Trees
TTITLE2=Skippy
TTITLE3=I Still Call Australia Home
TTITLE4=Waltzing Matilda
TTITLE5=Six White Boomers
TTITLE6=Duncan
TTITLE7=Tie Me Kangaroo Down, Sport
TTITLE8=Tenterfield Saddler
TTITLE9=Pub With No Beer
TTITLE10=True Blue
TTITLE11=Jake The Peg
TTITLE12=Raining On The Rock
TTITLE13=Old Man Emu
TTITLE14=And The Band Played Waltzing Matilda
TTITLE15=My Boomerang Won't Come Back
TTITLE16=I Was Only Nineteen
EXTD=
EXTT0=
EXTT1=
EXTT2=
EXTT3=
EXTT4=
EXTT5=
EXTT6=
EXTT7=
EXTT8=
EXTT9=
EXTT10=
EXTT11=
EXTT12=
EXTT13=
EXTT14=
EXTT15=
EXTT16=
PLAYORDER=
